<?xml version="1.0" encoding="UTF-8" standalone="no"?>
<!-- Created with Inkscape (http://www.inkscape.org/) -->

<svg
        xmlns:dc="http://purl.org/dc/elements/1.1/"
        xmlns:cc="http://creativecommons.org/ns#"
        xmlns:rdf="http://www.w3.org/1999/02/22-rdf-syntax-ns#"
        xmlns:svg="http://www.w3.org/2000/svg"
        xmlns="http://www.w3.org/2000/svg"
        xmlns:sodipodi="http://sodipodi.sourceforge.net/DTD/sodipodi-0.dtd"
        xmlns:inkscape="http://www.inkscape.org/namespaces/inkscape"
        version="1.1"
        id="svg2"
        xml:space="preserve"
        width="360.07333"
        height="260.40799"
        viewBox="0 0 360.07333 260.40799"
        sodipodi:docname="pg_logo_bialy.svg"
        inkscape:version="0.92.4 (unknown)"><metadata
     id="metadata8"><rdf:RDF><cc:Work
         rdf:about=""><dc:format>image/svg+xml</dc:format><dc:type
        rdf:resource="http://purl.org/dc/dcmitype/StillImage"/><dc:title></dc:title></cc:Work></rdf:RDF></metadata>
    <defs
            id="defs6"><clipPath
       clipPathUnits="userSpaceOnUse"
       id="clipPath18"><path
         d="M 0,595.28 H 841.89 V 0 H 0 Z"
         id="path16"
         inkscape:connector-curvature="0" /></clipPath></defs>
    <sodipodi:namedview
            pagecolor="#ffffff"
            bordercolor="#666666"
            borderopacity="1"
            objecttolerance="10"
            gridtolerance="10"
            guidetolerance="10"
            inkscape:pageopacity="0"
            inkscape:pageshadow="2"
            inkscape:window-width="770"
            inkscape:window-height="480"
            id="namedview4"
            showgrid="false"
            inkscape:zoom="0.26280155"
            inkscape:cx="-466.49352"
            inkscape:cy="92.757477"
            inkscape:window-x="0"
            inkscape:window-y="0"
            inkscape:window-maximized="0"
            inkscape:current-layer="g10"
            fit-margin-top="0"
            fit-margin-left="0"
            fit-margin-right="0"
            fit-margin-bottom="0"/>
    <g
            id="g10"
            inkscape:groupmode="layer"
            inkscape:label="pg_logo_bialy"
            transform="matrix(1.3333333,0,0,-1.3333333,-380.87759,564.50385)"><g
       id="g12"><g
         id="g14"
         clip-path="url(#clipPath18)"><g
           id="g20"
           transform="translate(371.8232,237.9219)"><path
             d="m 0,0 c 0,-0.855 -0.167,-1.58 -0.51,-2.174 -0.34,-0.597 -0.793,-1.084 -1.36,-1.471 -0.567,-0.384 -1.224,-0.654 -1.978,-0.832 -0.748,-0.168 -1.536,-0.252 -2.358,-0.252 h -3.91 V 14.9 h 4.381 c 0.822,0 1.587,-0.082 2.293,-0.252 0.705,-0.173 1.317,-0.451 1.83,-0.835 0.508,-0.379 0.898,-0.874 1.187,-1.465 C -0.142,11.75 0,11.041 0,10.219 Z m 2.222,17.332 c -0.969,0.772 -2.131,1.338 -3.48,1.711 -1.351,0.369 -2.84,0.551 -4.46,0.551 h -9.601 v -29.02 h 9.131 c 1.592,0 3.088,0.182 4.483,0.559 1.393,0.365 2.609,0.935 3.649,1.703 1.037,0.768 1.857,1.744 2.449,2.928 0.6,1.179 0.898,2.582 0.898,4.203 v 10.244 c 0,1.617 -0.27,3.019 -0.808,4.199 -0.544,1.186 -1.297,2.151 -2.261,2.922 m -33.501,42.643 h -5.294 v -29.02 h 17.433 v 4.691 h -12.139 z m 21.239,0 h -5.29 v -29.02 h 5.29 z M -30.896,2.357 h 5.545 v -6.275 c -0.963,-0.539 -1.842,-0.883 -2.629,-1.023 -0.789,-0.149 -1.709,-0.215 -2.766,-0.215 -0.857,0 -1.655,0.084 -2.398,0.26 -0.743,0.167 -1.394,0.447 -1.95,0.828 -0.555,0.382 -1,0.875 -1.326,1.472 -0.328,0.598 -0.493,1.321 -0.493,2.174 V 10.59 c 0,0.773 0.17,1.455 0.513,2.053 0.343,0.593 0.791,1.093 1.343,1.49 0.553,0.398 1.204,0.693 1.942,0.898 0.742,0.198 1.507,0.301 2.306,0.301 1.307,0 2.619,-0.256 3.928,-0.771 1.309,-0.51 2.487,-1.186 3.542,-2 l 2.386,3.839 c -1.365,1.272 -2.873,2.202 -4.523,2.768 -1.649,0.572 -3.428,0.859 -5.333,0.859 -1.539,0 -2.995,-0.211 -4.376,-0.627 -1.382,-0.414 -2.589,-1.007 -3.627,-1.785 -1.042,-0.787 -1.862,-1.767 -2.473,-2.949 -0.612,-1.174 -0.918,-2.537 -0.918,-4.076 V -0.422 c 0,-1.623 0.286,-3.021 0.875,-4.199 0.581,-1.182 1.389,-2.156 2.409,-2.928 1.025,-0.765 2.232,-1.34 3.627,-1.722 1.395,-0.391 2.902,-0.579 4.522,-0.579 1.086,0 2.076,0.079 2.97,0.235 0.896,0.154 1.752,0.386 2.582,0.701 0.824,0.316 1.658,0.693 2.497,1.131 0.839,0.441 1.729,0.933 2.663,1.474 V 6.623 h -10.838 z m 67.158,52.922 v 4.696 H 19.956 v -29.02 h 17.198 v 4.691 H 25.25 v 8.024 h 9.261 v 4.476 H 25.25 v 7.133 z m 64.254,4.696 h -6.91 V 30.955 H 98.3 v 22.914 l 11.78,-22.914 h 7.342 v 29.02 h -4.698 V 36.457 Z M -46.1,39.955 c 0,-0.797 -0.171,-1.494 -0.513,-2.09 -0.343,-0.599 -0.79,-1.095 -1.346,-1.496 -0.556,-0.396 -1.201,-0.687 -1.938,-0.873 -0.743,-0.183 -1.508,-0.277 -2.307,-0.277 h -0.641 c -0.821,0 -1.609,0.094 -2.346,0.277 -0.74,0.186 -1.394,0.475 -1.966,0.854 -0.568,0.384 -1.027,0.879 -1.366,1.474 -0.34,0.6 -0.51,1.305 -0.51,2.131 V 51.01 c 0,0.769 0.17,1.441 0.51,2.023 0.339,0.582 0.804,1.082 1.388,1.477 0.584,0.402 1.247,0.701 1.984,0.896 0.737,0.198 1.496,0.299 2.261,0.299 h 0.686 c 0.765,0 1.514,-0.107 2.238,-0.324 0.726,-0.209 1.378,-0.518 1.945,-0.918 0.566,-0.393 1.031,-0.887 1.382,-1.473 0.358,-0.578 0.539,-1.256 0.539,-2.027 z m 5.287,0 V 51.01 c 0,1.478 -0.317,2.793 -0.958,3.949 -0.639,1.15 -1.487,2.131 -2.539,2.941 -1.047,0.815 -2.263,1.433 -3.627,1.86 -1.366,0.426 -2.788,0.641 -4.267,0.641 h -0.686 c -1.507,0 -2.947,-0.209 -4.33,-0.617 -1.38,-0.418 -2.595,-1.028 -3.644,-1.839 -1.06,-0.812 -1.899,-1.793 -2.523,-2.945 -0.629,-1.152 -0.934,-2.48 -0.934,-3.99 V 39.955 c 0,-1.568 0.302,-2.939 0.915,-4.115 0.612,-1.186 1.436,-2.168 2.473,-2.947 1.043,-0.786 2.253,-1.372 3.651,-1.768 1.394,-0.4 2.868,-0.604 4.437,-0.604 h 0.641 c 1.536,0 2.995,0.204 4.375,0.604 1.383,0.396 2.585,0.994 3.628,1.791 1.037,0.793 1.858,1.779 2.476,2.967 0.607,1.176 0.912,2.541 0.912,4.072 m 48.374,-9 v 24.279 h 8.66 v 4.741 H -6.313 V 55.279 L 2.268,55.234 V 30.955 Z m -80.495,17.963 c 0,-0.938 -0.365,-1.609 -1.09,-2.004 -0.726,-0.396 -1.542,-0.601 -2.455,-0.601 h -4.392 v 8.966 h 4.392 c 0.998,0 1.836,-0.265 2.517,-0.799 0.686,-0.519 1.028,-1.283 1.028,-2.279 z m 2.791,9.09 c -0.779,0.652 -1.711,1.147 -2.791,1.477 -1.085,0.32 -2.263,0.49 -3.545,0.49 h -9.686 v -29.02 h 5.294 v 10.666 h 4.477 c 1.197,0 2.319,0.158 3.375,0.473 1.052,0.306 1.976,0.767 2.769,1.386 0.799,0.608 1.434,1.368 1.904,2.284 0.471,0.91 0.703,1.961 0.703,3.154 v 3.283 c 0,1.285 -0.221,2.41 -0.657,3.375 -0.442,0.965 -1.06,1.778 -1.843,2.432 m 193.726,-56.293 3.758,12.588 3.712,-12.588 z m 0.595,18.094 -9.601,-29.235 h 5.634 l 2.046,6.875 h 10.116 l 2.007,-6.875 h 5.549 l -9.301,29.235 z m 32.748,40.166 h -6.954 l -8.361,-11.106 h -1.677 v 11.106 h -5.293 v -29.02 h 5.293 v 12.809 h 1.871 l 8.806,-12.809 h 7.216 L 145.992,46.701 Z M 112.971,19.594 h -6.957 L 97.653,8.49 h -1.682 v 11.104 h -5.288 v -29.02 h 5.288 V 3.389 h 1.875 l 8.807,-12.815 h 7.21 L 102.034,6.32 Z m 54.576,22.5 3.752,12.586 3.712,-12.586 z m 7.039,18.092 h -6.447 l -9.604,-29.231 h 5.637 l 2.049,6.869 h 10.113 l 2.01,-6.869 h 5.546 z M 55.838,35.816 c -1.241,-0.398 -2.585,-0.597 -4.035,-0.597 -1.65,0 -3.022,0.381 -4.115,1.131 -1.1,0.755 -1.644,1.959 -1.644,3.605 v 11.008 c 0,0.771 0.147,1.449 0.448,2.027 0.297,0.586 0.708,1.08 1.236,1.473 0.527,0.4 1.139,0.709 1.835,0.918 0.698,0.217 1.429,0.324 2.2,0.324 1.451,0 2.695,-0.281 3.735,-0.834 1.034,-0.553 2.012,-1.26 2.924,-2.111 l 2.902,3.586 c -0.685,0.679 -1.344,1.277 -1.989,1.791 -0.641,0.509 -1.321,0.938 -2.046,1.28 -0.726,0.343 -1.536,0.593 -2.432,0.75 -0.895,0.154 -1.932,0.234 -3.094,0.234 -1.513,0 -2.93,-0.215 -4.268,-0.641 C 46.154,59.333 44.99,58.715 43.998,57.9 43.001,57.09 42.207,56.098 41.623,54.934 41.043,53.77 40.751,52.449 40.751,50.963 V 39.955 c 0,-1.568 0.286,-2.939 0.855,-4.115 0.567,-1.186 1.344,-2.168 2.327,-2.947 0.978,-0.786 2.145,-1.372 3.5,-1.768 1.348,-0.4 2.805,-0.604 4.37,-0.604 1.881,0 3.593,0.231 5.145,0.682 1.548,0.457 3.05,1.332 4.5,2.606 l -2.301,3.886 C 58.179,36.84 57.073,36.213 55.838,35.816 M 55.577,-3.918 43.372,19.594 H 36.46 v -29.02 h 4.693 v 22.924 l 11.78,-22.924 h 7.342 v 29.02 H 55.577 Z M 16.352,1.715 20.109,14.303 23.821,1.715 Z m 0.6,18.094 -9.606,-29.235 h 5.633 l 2.046,6.875 h 10.117 l 2.006,-6.875 h 5.549 L 23.396,19.809 Z M 82.561,47.381 H 70.658 v 12.594 h -5.293 v -29.02 h 5.293 V 42.686 H 82.561 V 30.955 h 5.293 v 29.02 H 82.561 Z M 49.638,25.205 v -0.006 l -1.905,-7.054 h 3.089 l 4.015,7.06 z M 84.057,4.658 C 83.246,5.346 82.26,5.926 81.09,6.41 c -1.165,0.483 -2.491,0.91 -3.965,1.281 -0.714,0.17 -1.439,0.364 -2.182,0.573 -0.737,0.215 -1.402,0.484 -2.006,0.816 -0.595,0.32 -1.083,0.709 -1.468,1.152 -0.385,0.438 -0.578,0.985 -0.578,1.637 0,0.656 0.153,1.201 0.448,1.647 0.3,0.437 0.691,0.793 1.176,1.068 0.481,0.268 1.04,0.459 1.663,0.572 0.627,0.11 1.264,0.176 1.916,0.176 0.572,0 1.178,-0.092 1.819,-0.256 0.635,-0.176 1.258,-0.396 1.859,-0.666 0.595,-0.269 1.145,-0.56 1.661,-0.875 0.509,-0.312 0.935,-0.627 1.281,-0.939 l 2.944,3.927 c -1.193,0.967 -2.576,1.791 -4.14,2.475 -1.565,0.684 -3.367,1.029 -5.424,1.029 -1.446,0 -2.806,-0.158 -4.07,-0.478 -1.269,-0.307 -2.378,-0.791 -3.333,-1.445 -0.951,-0.657 -1.705,-1.5 -2.26,-2.543 -0.55,-1.034 -0.833,-2.272 -0.833,-3.692 0,-1.254 0.192,-2.332 0.578,-3.24 C 66.561,7.717 67.122,6.93 67.861,6.26 68.602,5.588 69.508,5.016 70.568,4.529 71.639,4.051 72.841,3.59 74.178,3.166 74.887,2.971 75.657,2.758 76.484,2.545 77.307,2.332 78.077,2.063 78.786,1.734 79.5,1.412 80.09,1.004 80.557,0.52 c 0.467,-0.485 0.706,-1.104 0.706,-1.834 0,-0.711 -0.173,-1.309 -0.516,-1.791 -0.337,-0.489 -0.782,-0.874 -1.32,-1.157 -0.539,-0.277 -1.152,-0.488 -1.837,-0.615 -0.68,-0.133 -1.365,-0.195 -2.046,-0.195 -0.657,0 -1.355,0.113 -2.091,0.343 -0.743,0.227 -1.451,0.524 -2.137,0.895 -0.68,0.369 -1.315,0.793 -1.902,1.258 -0.58,0.474 -1.039,0.961 -1.38,1.474 l -3.457,-3.281 c 0.567,-0.859 1.276,-1.619 2.109,-2.291 0.838,-0.668 1.751,-1.232 2.728,-1.68 0.983,-0.457 2.032,-0.81 3.144,-1.044 1.104,-0.245 2.232,-0.368 3.372,-0.368 1.42,0 2.777,0.164 4.069,0.495 1.298,0.326 2.432,0.841 3.395,1.533 0.969,0.699 1.737,1.578 2.306,2.642 0.57,1.073 0.851,2.328 0.851,3.782 0,1.363 -0.21,2.531 -0.635,3.496 -0.431,0.97 -1.049,1.797 -1.859,2.476 m -107.288,164.002 -5.691,-4.276 2.415,-3.214 4.613,3.472 h 5.362 l 1.706,12.605 -11.995,2.179 -1.137,-6.501 3.956,-0.689 0.442,2.517 4.24,-0.771 -0.72,-5.322 z M 123.373,30.955 h 5.291 v 29.02 h -5.291 z M 34.386,148.897 c -0.403,0.312 -0.902,0.468 -1.485,0.468 H 28.77 v -5.339 h 4.131 c 0.533,0 1.02,0.121 1.446,0.354 0.43,0.235 0.639,0.626 0.639,1.184 v 1.99 c 0,0.584 -0.198,1.034 -0.6,1.343 m 13.217,3.741 h 2.517 v -44.434 h -2.517 z m -9.497,-7.074 c 0,-0.708 -0.138,-1.332 -0.41,-1.861 -0.281,-0.539 -0.652,-0.989 -1.123,-1.352 -0.469,-0.357 -1.013,-0.632 -1.637,-0.819 -0.618,-0.181 -1.281,-0.275 -1.984,-0.275 H 28.77 v -6.235 h -3.118 v 17.105 h 7.249 c 0.754,0 1.451,-0.093 2.085,-0.283 0.641,-0.198 1.191,-0.487 1.65,-0.872 0.465,-0.383 0.822,-0.862 1.083,-1.434 0.26,-0.567 0.387,-1.233 0.387,-1.984 z m -0.444,-33.229 c -0.55,-0.317 -1.077,-0.606 -1.57,-0.87 -0.493,-0.258 -0.987,-0.482 -1.474,-0.66 -0.481,-0.187 -0.992,-0.326 -1.518,-0.417 -0.528,-0.09 -1.112,-0.136 -1.752,-0.136 -0.957,0 -1.842,0.111 -2.663,0.335 -0.823,0.229 -1.539,0.569 -2.14,1.017 -0.604,0.457 -1.08,1.032 -1.42,1.726 -0.346,0.697 -0.521,1.527 -0.521,2.477 v 6.492 c 0,0.907 0.181,1.712 0.543,2.403 0.361,0.697 0.845,1.275 1.457,1.735 0.613,0.464 1.327,0.813 2.143,1.059 0.81,0.238 1.672,0.366 2.572,0.366 1.128,0 2.177,-0.171 3.152,-0.502 0.969,-0.34 1.859,-0.881 2.664,-1.635 l -1.406,-2.267 c -0.624,0.487 -1.315,0.878 -2.091,1.182 -0.771,0.303 -1.541,0.453 -2.319,0.453 -0.464,0 -0.918,-0.057 -1.354,-0.176 -0.437,-0.116 -0.816,-0.292 -1.145,-0.527 -0.329,-0.232 -0.594,-0.53 -0.794,-0.884 -0.198,-0.354 -0.299,-0.754 -0.299,-1.207 v -6.492 c 0,-0.494 0.096,-0.93 0.289,-1.284 0.192,-0.354 0.453,-0.638 0.782,-0.864 0.328,-0.227 0.714,-0.394 1.15,-0.491 0.437,-0.105 0.907,-0.153 1.417,-0.153 0.617,0 1.162,0.043 1.626,0.125 0.46,0.085 0.982,0.289 1.554,0.604 v 3.706 h -2.482 v 2.514 h 5.599 z m 25.385,39.393 -0.896,-3.525 h 4.293 l -1.351,3.525 2.397,4.004 2.392,-4.004 -1.355,-3.525 h 4.296 l -0.889,3.52 3.587,2.423 -0.759,-5.949 v -3.695 H 60.219 v 3.701 l -0.766,5.945 z m 10.683,-21.2 -4.61,0.584 0.607,-4.616 H 65.28 l 0.613,4.582 -4.646,-0.55 v 4.418 l 4.646,-0.62 -0.613,4.619 h 4.447 l -0.607,-4.554 4.61,0.555 z m 0,-18 -4.61,0.581 0.607,-4.614 H 65.28 l 0.613,4.577 -4.646,-0.544 v 4.418 l 4.646,-0.621 -0.613,4.625 h 4.447 l -0.607,-4.562 4.61,0.558 z m 10.809,-10.791 v 64.648 H 13.187 V 101.737 L 48.861,88.032 Z m -138.188,21.149 7.492,5.625 v 8.212 l 7.964,5.996 -2.341,3.106 11.85,8.882 13.996,-7.626 V 132.24 l 15.51,-2.253 2.409,7.028 h 6.031 v 33.295 h 79.199 v -37.243 h 6.035 l 2.591,-7.577 15.325,7.215 v 14.376 l 13.996,7.626 11.848,-8.882 -2.34,-3.106 7.966,-5.996 v -8.212 l 7.495,-5.625 v -16.19 h -3.973 v -4.018 h 13.064 l 3.746,-5.297 -9.261,-18.666 h -13.732 l 2.884,5.848 h 5.702 l 6.217,12.538 h -15.24 v 18.652 l -17.456,13.083 3.86,5.07 -3.197,2.434 -5.872,-7.713 v -4.492 l -19.553,-4.281 -6.087,1.788 v 3.36 H 88.461 V 99.039 L 48.861,83.833 9.262,99.039 v 29.919 H 5.249 v -3.372 l -6.309,-1.845 h -19.337 v 4.886 l -5.873,7.713 -3.193,-2.434 3.862,-5.07 -17.462,-13.083 V 97.101 h -15.24 l 6.224,-12.538 h 5.695 l 2.888,-5.848 h -13.73 l -9.266,18.666 3.746,5.297 h 13.066 v 4.018 h -3.969 z m 42.983,12.905 0.057,-0.08 -0.057,0.003 z m 15.915,8.83 V 141.03 H 0.363 l -2.261,-6.591 -7.983,1.162 12.007,9.02 z m -15.915,4.786 11.171,5.52 2.652,7.748 H 5.249 V 148.631 H 0.788 l -11.454,-8.601 z m 103.145,-4.786 h 3.123 l 12.593,-9.462 -8.761,-4.121 -2.07,6.05 h -4.885 z m 0,18.054 h 2.085 l 2.656,-7.748 11.174,-5.52 v -9.377 l -11.455,8.601 h -4.46 z m -157.016,-25.142 -2.408,3.214 -3.214,-2.409 -2.267,2.981 6.268,4.699 5.47,-7.167 v -3.097 l -7.372,-5.549 v -11.372 l 3.28,-4.293 7.112,5.333 v -13.177 h -7.158 l -6.33,-8.952 11.436,-23.045 h 20.682 l 0.009,4.049 -4.855,9.828 h -5.705 l -2.235,4.506 h 12.78 v 20.662 l 4.239,3.176 16.3,-8.342 V 97.483 l -3.876,-5.481 3.695,-7.439 h 5.691 l 2.891,-5.848 h -13.728 l -7.064,14.223 3.476,4.916 v 8.842 h -7.637 v -4.018 h 3.619 V 99.13 l -4.121,-5.827 9.231,-18.604 H -5.65 l 0.011,4.049 -4.857,9.828 h -5.701 l -1.526,3.061 3.237,4.568 v 14.832 l -16.743,8.561 6.813,5.112 v -4.99 h 23.935 l 5.73,1.677 V 96.276 L 48.861,79.531 92.479,96.276 v 21.18 l 5.945,-1.746 23.714,5.195 v 3.805 l 6.812,-5.112 -16.739,-8.561 V 96.205 l 3.233,-4.568 -1.524,-3.061 h -5.696 l -4.861,-9.828 0.012,-4.049 h 20.679 l 9.232,18.604 -4.126,5.827 v 3.548 h 3.621 v 4.018 h -7.639 v -8.842 l 3.476,-4.916 -7.058,-14.223 h -13.733 l 2.894,5.848 h 5.692 l 3.695,7.439 -3.881,5.481 v 11.095 l 16.299,8.342 4.24,-3.176 V 93.082 h 12.78 l -2.233,-4.506 h -5.702 l -4.856,-9.828 0.011,-4.049 h 20.675 l 11.438,23.045 -6.331,8.952 h -7.152 v 13.177 l 7.112,-5.333 3.276,4.293 v 11.372 l -7.374,5.549 v 3.097 l 5.47,7.167 6.268,-4.699 -2.267,-2.981 -3.213,2.409 -2.409,-3.214 6.407,-4.797 5.552,7.285 v 3.268 l -11.114,8.329 -8.711,-11.412 v -6.461 l 7.373,-5.546 v -8.006 l -0.035,-0.05 -13.829,10.371 v 8.215 l -8.268,6.223 2.335,3.12 -11.687,8.751 3.616,1.97 10.337,-7.748 -2.323,-3.108 7.482,-5.606 2.402,3.219 -7.458,5.586 2.329,3.109 -8.89,6.659 0.06,0.034 v 4.599 l 11.098,-8.314 -2.331,-3.106 6.037,-4.523 2.409,3.214 -6.008,4.503 2.323,3.111 -13.528,10.137 v 4.675 l 15.799,-11.834 -2.327,-3.108 4.523,-3.39 2.408,3.217 -4.5,3.366 2.329,3.109 -18.232,13.659 v 5.203 h -4.019 v -4.347 l -6.319,-1.148 0.714,-3.953 5.605,1.012 v -13.696 l -10.813,-5.897 -4.977,3.735 -2.414,-3.214 3.514,-2.633 -6.478,-3.53 -12.169,6.01 -3.043,8.898 h -4.959 v 7.632 H 5.249 v -7.632 H 0.284 l -3.044,-8.898 -12.163,-6.01 -6.477,3.53 3.507,2.633 -2.408,3.214 -4.976,-3.735 -10.82,5.897 v 13.696 l 5.606,-1.012 0.714,3.953 -6.32,1.148 v 4.347 h -4.012 v -5.203 l -18.233,-13.659 2.323,-3.109 -4.5,-3.366 2.41,-3.217 4.528,3.39 -2.33,3.108 15.802,11.834 v -4.675 l -13.537,-10.137 2.332,-3.111 -6.008,-4.503 2.409,-3.214 6.03,4.523 -2.329,3.106 11.103,8.314 v -4.599 l 0.056,-0.034 -8.892,-6.659 2.329,-3.109 -7.458,-5.586 2.408,-3.219 7.481,5.606 -2.326,3.108 10.335,7.748 3.611,-1.97 -11.676,-8.751 2.329,-3.12 -8.263,-6.223 v -8.215 l -13.835,-10.371 -0.028,0.05 v 8.006 l 7.368,5.546 v 6.461 l -8.706,11.412 -11.119,-8.329 v -3.268 l 5.554,-7.285 z m 184.152,27.109 4.619,-3.472 2.415,3.214 -5.69,4.276 h -3.191 l -0.72,5.322 4.234,0.771 0.442,-2.517 3.956,0.689 -1.133,6.501 -11.996,-2.179 1.703,-12.605 z"
             style="fill:#ffffff;fill-opacity:1;fill-rule:nonzero;stroke:none"
             id="path22"
             inkscape:connector-curvature="0" /></g></g></g></g></svg>
