<?xml version="1.0" encoding="UTF-8" standalone="no"?>
<!-- Created with Inkscape (http://www.inkscape.org/) -->

<svg
        xmlns:dc="http://purl.org/dc/elements/1.1/"
        xmlns:cc="http://creativecommons.org/ns#"
        xmlns:rdf="http://www.w3.org/1999/02/22-rdf-syntax-ns#"
        xmlns:svg="http://www.w3.org/2000/svg"
        xmlns="http://www.w3.org/2000/svg"
        xmlns:sodipodi="http://sodipodi.sourceforge.net/DTD/sodipodi-0.dtd"
        xmlns:inkscape="http://www.inkscape.org/namespaces/inkscape"
        version="1.1"
        id="svg2"
        xml:space="preserve"
        width="604.52533"
        height="102.77467"
        viewBox="0 0 604.52532 102.77467"
        sodipodi:docname="pg_poziome_logo_kolor.svg"
        inkscape:version="0.92.4 (unknown)"><metadata
     id="metadata8"><rdf:RDF><cc:Work
         rdf:about=""><dc:format>image/svg+xml</dc:format><dc:type
        rdf:resource="http://purl.org/dc/dcmitype/StillImage"/><dc:title></dc:title></cc:Work></rdf:RDF></metadata>
    <defs
            id="defs6"><clipPath
       clipPathUnits="userSpaceOnUse"
       id="clipPath18"><path
         d="M 0,595.28 H 841.89 V 0 H 0 Z"
         id="path16"
         inkscape:connector-curvature="0" /></clipPath></defs>
    <sodipodi:namedview
            pagecolor="#ffffff"
            bordercolor="#666666"
            borderopacity="1"
            objecttolerance="10"
            gridtolerance="10"
            guidetolerance="10"
            inkscape:pageopacity="0"
            inkscape:pageshadow="2"
            inkscape:window-width="770"
            inkscape:window-height="480"
            id="namedview4"
            showgrid="false"
            fit-margin-top="0"
            fit-margin-left="0"
            fit-margin-right="0"
            fit-margin-bottom="0"
            inkscape:zoom="0.29733907"
            inkscape:cx="302.26242"
            inkscape:cy="36.269213"
            inkscape:window-x="0"
            inkscape:window-y="0"
            inkscape:window-maximized="0"
            inkscape:current-layer="g10"/>
    <g
            id="g10"
            inkscape:groupmode="layer"
            inkscape:label="pg_poziome_logo_kolor"
            transform="matrix(1.3333333,0,0,-1.3333333,-258.99759,463.35879)"><g
       id="g12"><g
         id="g14"
         clip-path="url(#clipPath18)"><g
           id="g20"
           transform="translate(359.1602,289.9111)"><path
             d="m 0,0 2.604,-3.688 -6.444,-12.99 h -9.556 l 2.008,4.071 h 3.966 l 4.329,8.724 H -13.699 V 9.098 l -12.149,9.106 2.686,3.528 -2.225,1.694 -4.086,-5.367 v -3.126 l -13.608,-2.979 -4.237,1.244 v 2.338 h -2.797 V -2.533 l -27.557,-10.582 -27.559,10.582 V 18.29 h -2.793 v -2.348 l -4.389,-1.283 h -13.459 v 3.4 l -4.085,5.367 -2.224,-1.694 2.687,-3.528 -12.153,-9.106 V -3.883 h -10.606 l 4.331,-8.724 h 3.964 l 2.01,-4.071 h -9.555 l -6.449,12.99 2.606,3.688 h 9.095 v 2.795 h -2.765 v 11.268 l 5.216,3.915 v 5.715 l 5.543,4.173 -1.629,2.161 8.246,6.181 9.742,-5.307 V 20.572 l 10.792,-1.567 1.676,4.891 h 4.199 v 23.171 h 55.116 V 21.148 h 4.2 l 1.805,-5.272 10.664,5.02 v 10.005 l 9.742,5.307 8.244,-6.181 -1.627,-2.161 5.543,-4.173 v -5.715 l 5.218,-3.915 V 2.795 H -9.092 V 0 Z m -119.101,23.044 0.041,-0.055 -0.041,0.002 z m 11.077,6.145 V 26.69 h -3.402 l -1.574,-4.586 -5.553,0.808 8.355,6.277 z m -11.077,3.331 7.776,3.842 1.845,5.391 h 1.456 v -9.774 h -3.105 l -7.972,-5.985 z m 71.783,-3.331 h 2.173 l 8.764,-6.585 -6.096,-2.867 -1.439,4.21 h -3.402 z m 0,12.564 h 1.453 l 1.846,-5.391 7.777,-3.842 v -6.526 l -7.972,5.985 h -3.104 z M -4.229,26.116 V 21.62 L 0.9,17.761 V 12.19 l -0.023,-0.037 -9.624,7.22 v 5.716 l -5.755,4.331 1.625,2.17 -8.131,6.091 2.515,1.371 7.196,-5.392 -1.619,-2.163 5.207,-3.901 1.674,2.24 -5.192,3.887 1.62,2.164 -6.185,4.634 0.04,0.024 v 3.201 l 7.725,-5.788 -1.621,-2.16 4.198,-3.148 1.678,2.236 -4.182,3.135 1.619,2.165 -9.417,7.054 v 3.254 l 10.996,-8.235 -1.619,-2.164 3.148,-2.358 1.676,2.238 -3.132,2.343 1.62,2.163 -12.689,9.506 v 3.621 h -2.795 v -3.025 l -4.399,-0.799 0.498,-2.751 3.901,0.704 v -9.532 l -7.526,-4.103 -3.464,2.599 -1.679,-2.237 2.445,-1.832 -4.508,-2.458 -8.47,4.184 -2.117,6.192 h -3.452 v 5.311 h -60.706 V 44.55 h -3.455 l -2.118,-6.192 -8.466,-4.184 -4.509,2.458 2.444,1.832 -1.678,2.237 -3.464,-2.599 -7.529,4.103 v 9.532 l 3.903,-0.704 0.497,2.751 -4.4,0.799 v 3.025 h -2.793 v -3.621 l -12.689,-9.506 1.619,-2.163 -3.133,-2.343 1.678,-2.238 3.149,2.358 -1.621,2.164 10.997,8.235 V 47.24 l -9.421,-7.054 1.624,-2.165 -4.182,-3.135 1.676,-2.236 4.199,3.148 -1.62,2.16 7.724,5.788 v -3.201 l 0.04,-0.024 -6.187,-4.634 1.62,-2.164 -5.189,-3.887 1.673,-2.24 5.209,3.901 -1.621,2.163 7.193,5.392 2.513,-1.371 -8.126,-6.091 1.622,-2.17 -5.752,-4.331 v -5.716 l -9.627,-7.22 -0.02,0.037 v 5.571 l 5.127,3.859 v 4.496 l -6.059,7.943 -7.736,-5.797 v -2.273 l 3.865,-5.071 4.456,3.338 -1.676,2.238 -2.235,-1.677 -1.578,2.075 4.36,3.27 3.808,-4.988 v -2.156 l -5.13,-3.86 v -7.915 l 2.281,-2.989 4.949,3.711 v -9.17 h -4.979 l -4.406,-6.229 7.96,-16.039 h 14.39 l 0.007,2.819 -3.379,6.84 h -3.969 l -1.555,3.136 h 8.894 V 7.7 l 2.949,2.211 11.345,-5.806 v -7.72 l -2.699,-3.815 2.571,-5.177 h 3.96 l 2.015,-4.071 h -9.556 l -4.916,9.899 2.419,3.422 v 6.152 h -5.314 V 0 h 2.519 v -2.469 l -2.868,-4.056 6.423,-12.948 h 14.392 l 0.006,2.819 -3.38,6.84 h -3.968 l -1.059,2.128 2.25,3.18 V 5.816 l -11.651,5.958 4.743,3.559 V 11.86 h 16.654 l 3.99,1.168 V -4.457 l 30.352,-11.652 30.354,11.652 v 14.741 l 4.139,-1.215 16.501,3.616 v 2.648 l 4.743,-3.559 -11.65,-5.958 V -4.506 l 2.249,-3.18 -1.06,-2.128 h -3.965 l -3.381,-6.84 0.008,-2.819 h 14.389 l 6.426,12.948 -2.871,4.056 V 0 h 2.521 v 2.795 h -5.316 v -6.152 l 2.418,-3.422 -4.911,-9.899 h -9.558 l 2.014,4.071 h 3.96 l 2.572,5.177 -2.7,3.815 v 7.72 L -19.445,9.911 -16.496,7.7 V -6.678 h 8.894 l -1.555,-3.136 h -3.966 l -3.382,-6.84 0.007,-2.819 H -2.106 L 5.852,-3.434 1.447,2.795 h -4.978 v 9.17 l 4.949,-3.711 2.281,2.989 v 7.915 l -5.132,3.86 v 2.156 l 3.807,4.988 4.362,-3.27 -1.578,-2.075 -2.235,1.677 -1.679,-2.238 4.46,-3.338 3.864,5.071 v 2.273 l -7.735,5.797 z m 154.188,0.652 h -11.238 v 7.572 h 8.742 v 4.227 h -8.742 v 6.734 h 10.393 v 4.433 H 133.725 V 22.337 h 16.234 z M 38.537,45.301 h 4.149 c 0.94,0 1.735,-0.251 2.377,-0.755 0.643,-0.489 0.969,-1.211 0.969,-2.15 v -3.101 c 0,-0.886 -0.344,-1.52 -1.028,-1.891 -0.686,-0.375 -1.459,-0.567 -2.318,-0.567 h -4.149 z m 0,-12.894 h 4.23 c 1.129,0 2.188,0.15 3.184,0.447 0.992,0.288 1.864,0.723 2.615,1.308 0.754,0.574 1.352,1.291 1.794,2.155 0.446,0.86 0.666,1.852 0.666,2.978 v 3.101 c 0,1.212 -0.209,2.274 -0.62,3.186 -0.418,0.91 -1,1.676 -1.738,2.295 -0.736,0.616 -1.615,1.081 -2.636,1.394 -1.023,0.302 -2.136,0.463 -3.346,0.463 H 33.539 V 22.337 h 4.998 z M 163.789,21.928 c 1.774,0 3.393,0.219 4.855,0.644 1.461,0.43 2.881,1.258 4.252,2.458 l -2.174,3.672 c -0.917,-0.808 -1.957,-1.399 -3.126,-1.774 -1.17,-0.378 -2.438,-0.566 -3.807,-0.566 -1.559,0 -2.851,0.36 -3.888,1.069 -1.035,0.713 -1.551,1.849 -1.551,3.402 v 10.394 c 0,0.727 0.141,1.366 0.422,1.913 0.283,0.553 0.673,1.018 1.17,1.39 0.497,0.377 1.075,0.67 1.73,0.867 0.66,0.203 1.35,0.305 2.076,0.305 1.37,0 2.547,-0.264 3.526,-0.786 0.978,-0.522 1.902,-1.191 2.76,-1.994 l 2.741,3.385 c -0.646,0.642 -1.269,1.206 -1.876,1.691 -0.606,0.481 -1.247,0.885 -1.931,1.21 -0.687,0.323 -1.451,0.557 -2.298,0.704 -0.846,0.149 -1.822,0.223 -2.922,0.223 -1.426,0 -2.766,-0.204 -4.029,-0.604 -1.264,-0.405 -2.365,-0.988 -3.3,-1.756 -0.942,-0.765 -1.69,-1.701 -2.239,-2.8 -0.551,-1.1 -0.825,-2.347 -0.825,-3.748 V 30.833 c 0,-1.479 0.268,-2.774 0.805,-3.883 0.539,-1.119 1.27,-2.047 2.197,-2.784 0.924,-0.74 2.026,-1.294 3.304,-1.668 1.277,-0.377 2.65,-0.57 4.128,-0.57 M 152.787,-2.486 c -0.767,0.646 -1.698,1.195 -2.803,1.652 -1.1,0.455 -2.349,0.859 -3.743,1.209 -0.674,0.16 -1.356,0.342 -2.057,0.541 -0.7,0.203 -1.327,0.457 -1.895,0.772 -0.562,0.302 -1.023,0.667 -1.386,1.087 -0.367,0.413 -0.546,0.928 -0.546,1.543 0,0.621 0.143,1.135 0.422,1.555 0.283,0.416 0.655,0.75 1.112,1.01 0.453,0.254 0.979,0.434 1.569,0.539 0.591,0.106 1.192,0.166 1.809,0.166 0.54,0 1.112,-0.086 1.715,-0.242 0.603,-0.164 1.188,-0.373 1.756,-0.627 0.561,-0.256 1.083,-0.53 1.569,-0.826 0.482,-0.295 0.884,-0.592 1.208,-0.887 l 2.78,3.709 c -1.127,0.912 -2.43,1.692 -3.906,2.336 -1.479,0.645 -3.181,0.971 -5.122,0.971 -1.367,0 -2.647,-0.15 -3.843,-0.453 -1.197,-0.287 -2.244,-0.746 -3.144,-1.363 -0.9,-0.62 -1.612,-1.416 -2.137,-2.401 -0.52,-0.976 -0.785,-2.145 -0.785,-3.487 0,-1.181 0.182,-2.201 0.548,-3.058 0.36,-0.86 0.891,-1.604 1.59,-2.235 0.695,-0.634 1.552,-1.175 2.553,-1.634 1.011,-0.454 2.145,-0.887 3.409,-1.287 0.67,-0.184 1.395,-0.385 2.177,-0.586 0.777,-0.202 1.506,-0.456 2.172,-0.766 0.673,-0.305 1.232,-0.69 1.673,-1.148 0.443,-0.458 0.664,-1.04 0.664,-1.729 0,-0.674 -0.162,-1.238 -0.484,-1.693 -0.319,-0.459 -0.737,-0.823 -1.248,-1.09 -0.508,-0.262 -1.086,-0.461 -1.731,-0.582 -0.646,-0.125 -1.29,-0.182 -1.931,-0.182 -0.622,0 -1.279,0.108 -1.976,0.322 -0.7,0.215 -1.372,0.495 -2.018,0.844 -0.642,0.35 -1.242,0.75 -1.795,1.19 -0.547,0.447 -0.983,0.906 -1.303,1.39 l -3.265,-3.097 c 0.537,-0.811 1.205,-1.528 1.994,-2.163 0.791,-0.63 1.653,-1.164 2.574,-1.585 0.931,-0.432 1.916,-0.766 2.965,-0.987 1.048,-0.23 2.108,-0.346 3.184,-0.346 1.341,0 2.622,0.157 3.845,0.465 1.225,0.309 2.291,0.795 3.205,1.448 0.912,0.662 1.637,1.49 2.178,2.496 0.535,1.011 0.802,2.197 0.802,3.57 0,1.285 -0.201,2.387 -0.602,3.301 -0.404,0.914 -0.987,1.695 -1.753,2.338 M -94.554,13.655 c 0,0.631 0.125,1.192 0.377,1.672 0.251,0.485 0.588,0.889 1.016,1.207 0.426,0.322 0.923,0.567 1.49,0.738 0.565,0.166 1.164,0.254 1.791,0.254 0.782,0 1.513,-0.119 2.192,-0.349 0.676,-0.237 1.295,-0.614 1.853,-1.137 l -0.976,-1.578 c -0.433,0.338 -0.917,0.611 -1.455,0.822 -0.539,0.211 -1.076,0.317 -1.614,0.317 -0.325,0 -0.641,-0.041 -0.943,-0.123 -0.305,-0.081 -0.567,-0.204 -0.798,-0.368 -0.227,-0.162 -0.413,-0.369 -0.551,-0.615 -0.14,-0.246 -0.208,-0.525 -0.208,-0.84 V 9.137 c 0,-0.344 0.065,-0.648 0.201,-0.894 0.134,-0.246 0.315,-0.444 0.544,-0.602 0.229,-0.158 0.495,-0.273 0.799,-0.342 0.305,-0.072 0.633,-0.105 0.986,-0.105 0.431,0 0.811,0.029 1.132,0.086 0.322,0.06 0.684,0.203 1.082,0.42 v 2.58 h -1.727 v 1.75 h 3.897 V 6.719 C -85.851,6.5 -86.216,6.299 -86.559,6.115 -86.903,5.936 -87.244,5.779 -87.587,5.654 -87.921,5.525 -88.276,5.428 -88.644,5.365 -89.009,5.303 -89.416,5.27 -89.86,5.27 c -0.667,0 -1.284,0.078 -1.855,0.234 -0.572,0.158 -1.07,0.394 -1.489,0.707 -0.419,0.318 -0.752,0.719 -0.989,1.202 -0.239,0.486 -0.361,1.062 -0.361,1.724 z m 0.73,20.758 h 5.043 c 0.526,0 1.01,-0.065 1.453,-0.197 0.443,-0.138 0.826,-0.339 1.148,-0.607 0.322,-0.267 0.571,-0.601 0.753,-0.998 0.181,-0.395 0.27,-0.858 0.27,-1.381 v -1.384 c 0,-0.493 -0.096,-0.927 -0.284,-1.295 -0.198,-0.376 -0.456,-0.689 -0.783,-0.942 -0.329,-0.248 -0.708,-0.439 -1.139,-0.569 -0.432,-0.127 -0.892,-0.191 -1.381,-0.191 h -2.91 v -4.34 h -2.17 z m 15.275,0.355 h 1.751 V 3.846 h -1.751 z m 10.747,-0.633 -0.623,-2.453 h 2.989 l -0.942,2.453 1.669,2.786 1.667,-2.786 -0.943,-2.453 h 2.987 l -0.619,2.449 2.498,1.686 -0.529,-4.139 V 29.107 H -69.77 v 2.575 l -0.53,4.137 z m 7.438,-14.752 -3.21,0.405 0.423,-3.211 h -3.095 l 0.425,3.187 -3.231,-0.381 v 3.074 l 3.231,-0.432 -0.425,3.214 h 3.095 l -0.423,-3.17 3.21,0.388 z m 0,-12.529 -3.21,0.404 0.423,-3.211 h -3.095 l 0.425,3.186 -3.231,-0.379 V 9.93 l 3.231,-0.433 -0.425,3.219 h 3.095 l -0.423,-3.174 3.21,0.388 z m -42.136,-7.51 24.828,-9.537 24.829,9.537 V 44.335 H -102.5 Z m 202.91,22.993 h 4.996 v 27.396 h -4.996 z m -3.593,4.431 H 85.354 V 49.734 H 80.358 V 22.337 H 96.817 Z M 44.266,-4.658 h 5.237 v -5.928 c -0.911,-0.508 -1.742,-0.83 -2.485,-0.963 -0.744,-0.14 -1.612,-0.203 -2.609,-0.203 -0.808,0 -1.563,0.08 -2.263,0.244 -0.703,0.158 -1.316,0.424 -1.84,0.781 -0.528,0.362 -0.947,0.829 -1.256,1.391 -0.31,0.566 -0.462,1.248 -0.462,2.053 V 3.111 c 0,0.733 0.158,1.373 0.482,1.938 0.324,0.562 0.745,1.033 1.268,1.408 0.523,0.377 1.136,0.655 1.833,0.848 0.7,0.188 1.425,0.283 2.179,0.283 1.232,0 2.468,-0.242 3.708,-0.726 1.232,-0.483 2.348,-1.12 3.341,-1.891 l 2.255,3.625 c -1.291,1.203 -2.715,2.08 -4.269,2.615 -1.559,0.541 -3.237,0.811 -5.035,0.811 -1.454,0 -2.829,-0.197 -4.132,-0.592 C 38.914,11.04 37.771,10.479 36.793,9.745 35.811,9.002 35.035,8.075 34.458,6.959 33.881,5.852 33.592,4.564 33.592,3.111 V -7.283 c 0,-1.533 0.271,-2.852 0.824,-3.965 0.551,-1.117 1.311,-2.035 2.277,-2.764 0.969,-0.722 2.108,-1.263 3.424,-1.627 1.317,-0.369 2.738,-0.545 4.272,-0.545 1.022,0 1.953,0.075 2.799,0.221 0.849,0.145 1.657,0.365 2.439,0.662 0.779,0.299 1.563,0.656 2.355,1.067 0.791,0.418 1.633,0.884 2.518,1.394 V -0.633 H 44.266 Z m 29.17,-2.227 c 0,-0.808 -0.16,-1.494 -0.484,-2.053 -0.321,-0.564 -0.75,-1.023 -1.284,-1.386 -0.534,-0.365 -1.156,-0.619 -1.866,-0.787 -0.708,-0.159 -1.452,-0.239 -2.225,-0.239 H 63.884 V 7.182 h 4.133 c 0.776,0 1.5,-0.078 2.167,-0.238 0.667,-0.162 1.244,-0.426 1.728,-0.79 0.478,-0.357 0.85,-0.824 1.119,-1.383 0.271,-0.564 0.405,-1.234 0.405,-2.009 z m 2.093,16.362 c -0.912,0.729 -2.008,1.262 -3.285,1.615 -1.274,0.348 -2.677,0.52 -4.208,0.52 H 58.97 v -27.395 h 8.622 c 1.502,0 2.917,0.172 4.229,0.529 1.319,0.344 2.466,0.881 3.447,1.606 0.979,0.726 1.753,1.646 2.313,2.765 0.568,1.112 0.847,2.436 0.847,3.965 v 9.672 c 0,1.527 -0.254,2.851 -0.764,3.965 -0.51,1.119 -1.224,2.031 -2.135,2.758 m 50.37,-20.063 -11.52,22.198 h -6.525 v -27.395 h 4.429 v 21.64 l 11.121,-21.64 h 6.93 v 27.395 h -4.435 z m 54.183,22.198 h -6.569 L 165.62,1.129 h -1.587 v 10.483 h -4.994 v -27.395 h 4.994 v 12.097 h 1.773 l 8.311,-12.097 h 6.807 L 169.76,-0.918 Z M 59.637,28.822 c -0.323,0.567 -0.481,1.233 -0.481,2.011 v 10.436 c 0,0.728 0.158,1.363 0.481,1.91 0.321,0.551 0.76,1.023 1.311,1.394 0.55,0.38 1.176,0.664 1.872,0.848 0.696,0.185 1.41,0.281 2.135,0.281 h 0.649 c 0.722,0 1.423,-0.102 2.113,-0.305 0.681,-0.197 1.297,-0.49 1.832,-0.867 0.535,-0.372 0.976,-0.837 1.306,-1.39 0.338,-0.547 0.507,-1.186 0.507,-1.913 V 30.833 c 0,-0.751 -0.161,-1.409 -0.483,-1.97 -0.322,-0.567 -0.747,-1.037 -1.272,-1.414 -0.522,-0.373 -1.132,-0.65 -1.829,-0.824 -0.702,-0.173 -1.424,-0.263 -2.174,-0.263 h -0.606 c -0.778,0 -1.52,0.09 -2.218,0.263 -0.697,0.174 -1.317,0.448 -1.852,0.806 -0.539,0.363 -0.97,0.828 -1.291,1.391 m 5.361,-6.894 h 0.606 c 1.447,0 2.824,0.193 4.128,0.57 1.303,0.374 2.441,0.939 3.425,1.69 0.978,0.75 1.755,1.681 2.337,2.8 0.574,1.111 0.863,2.401 0.863,3.845 v 10.436 c 0,1.398 -0.3,2.638 -0.907,3.73 -0.602,1.086 -1.403,2.011 -2.397,2.776 -0.99,0.768 -2.135,1.351 -3.424,1.756 -1.288,0.4 -2.633,0.604 -4.025,0.604 h -0.649 c -1.424,0 -2.785,-0.197 -4.088,-0.583 C 59.563,49.158 58.416,48.583 57.424,47.818 56.426,47.05 55.635,46.126 55.047,45.036 54.453,43.95 54.161,42.695 54.161,41.269 V 30.833 c 0,-1.479 0.286,-2.774 0.865,-3.883 0.578,-1.119 1.355,-2.047 2.336,-2.784 0.984,-0.74 2.126,-1.294 3.443,-1.668 1.319,-0.377 2.711,-0.57 4.193,-0.57 m 55.293,-5.025 -1.794,-6.656 h 2.911 l 3.794,6.662 h -4.911 z m -248.137,29.015 -3.96,-2.976 1.681,-2.235 3.212,2.415 h 3.731 l 1.188,8.772 -8.35,1.517 -0.791,-4.524 2.755,-0.479 0.306,1.751 2.95,-0.536 -0.501,-3.705 z m 99.414,-2.796 3.214,-2.415 1.68,2.235 -3.961,2.976 h -2.218 l -0.503,3.705 2.949,0.536 0.307,-1.751 2.752,0.479 -0.789,4.524 -8.348,-1.517 1.187,-8.772 z M 88.869,-5.266 92.416,6.617 95.92,-5.266 Z m 0.567,17.083 -9.07,-27.6 h 5.32 l 1.933,6.49 h 9.551 l 1.893,-6.49 h 5.239 l -8.781,27.6 z m 183.617,21.037 3.542,11.88 3.505,-11.88 z m 6.646,17.077 h -6.087 l -9.063,-27.594 h 5.32 l 1.931,6.485 h 9.55 l 1.896,-6.485 h 5.236 z M 117.023,22.337 h 4.997 v 22.921 h 8.177 v 4.476 h -21.273 v -4.433 l 8.099,-0.043 z m -204.798,6.684 c 0.3,0.165 0.447,0.437 0.447,0.825 v 1.384 c 0,0.406 -0.139,0.72 -0.42,0.935 -0.28,0.217 -0.624,0.326 -1.033,0.326 h -2.873 v -3.716 h 2.873 c 0.373,0 0.71,0.085 1.006,0.246 m 309.076,-1.488 -11.525,22.201 h -6.525 V 22.337 h 4.431 v 21.632 l 11.121,-21.632 h 6.929 v 27.397 h -4.431 z m -31.202,-32.799 3.547,11.883 3.505,-11.883 z m 0.564,17.083 -9.062,-27.6 h 5.317 l 1.932,6.49 h 9.55 l 1.892,-6.49 h 5.237 l -8.779,27.6 z m 72.365,37.917 h -6.566 l -7.89,-10.484 h -1.588 v 10.484 h -4.996 V 22.337 h 4.996 v 12.091 h 1.77 l 8.311,-12.091 h 6.812 l -11.17,14.865 z M 192.825,22.337 h 4.995 v 27.397 h -4.995 V 37.846 H 181.587 V 49.734 H 176.59 V 22.337 h 4.997 v 11.076 h 11.238 z m 38.529,0 h 4.994 v 27.396 h -4.994 z"
             style="fill:#003768;fill-opacity:1;fill-rule:nonzero;stroke:none"
             id="path22"
             inkscape:connector-curvature="0" /></g></g></g></g></svg>
